<svg width="47" height="16" viewBox="0 0 47 16" fill="none" xmlns="http://www.w3.org/2000/svg">
<path d="M3.35061 14.8555H0.436327V0.284039H5.47388L7.30571 7.19506C7.78449 8.98526 8.15918 10.5673 8.38816 11.8163H8.4298C8.67959 10.5673 9.13755 8.63139 9.51224 7.23669L11.3441 0.284039H16.3192V14.8555H13.4049V6.48731C13.4049 5.92526 13.4465 3.82282 13.4882 2.51139H13.4257C12.9886 4.23914 12.4682 6.17506 12.26 6.90363L10.0951 14.8555H6.63959L4.47469 6.82037C4.28735 6.11261 3.72531 3.96853 3.3298 2.51139H3.26735C3.28816 3.82282 3.35061 6.00853 3.35061 6.57057V14.8555ZM22.7383 7.38241C24.3203 7.94445 25.2987 9.04771 25.2987 10.7963C25.2987 14.3351 22.426 14.8555 19.1578 14.8555H13.3709V0.284039H18.8664C21.6974 0.284039 24.7366 0.804448 24.7366 4.21833C24.7366 5.75873 23.9664 6.79955 22.7383 7.38241ZM18.7207 2.74037H16.5142V6.19588H18.6999C20.4068 6.19588 21.6558 6.15424 21.6558 4.46812C21.6558 2.84445 20.4068 2.74037 18.7207 2.74037ZM16.5142 12.3991H19.0121C20.9897 12.3991 22.2178 12.2951 22.2178 10.5673C22.2178 8.71465 20.6774 8.6522 19.1162 8.6522H16.5142V12.3991ZM29.8752 15.1053C26.5237 15.1053 23.6927 13.544 23.5886 10.0261L26.7943 9.6722C26.7943 11.7122 28.085 12.6906 29.9584 12.6906C31.5821 12.6906 32.8311 12.1493 32.8311 10.6922C32.8311 9.27669 31.3531 9.21424 29.1466 8.73547C26.2323 8.11098 23.9841 7.09098 23.9841 4.30159C23.9841 1.32486 26.8568 0.0342443 29.667 0.0342443C32.8311 0.0342443 35.225 1.28322 35.5788 4.6971L32.3939 5.19669C32.3107 3.26077 31.3323 2.42812 29.6462 2.42812C28.1474 2.42812 27.169 3.01098 27.169 4.15588C27.169 5.23833 28.3348 5.65465 30.4164 6.02935C33.5805 6.59139 36.0368 7.46567 36.0368 10.6089C36.0368 14.1061 32.9143 15.1053 29.8752 15.1053ZM41.3996 14.8555H38.2563V2.92771H33.6143V0.284039H46.0416V2.92771H41.3996V14.8555Z" fill="black"/>
</svg>
